<mxfile host="app.diagrams.net" modified="2024-03-27T15:18:04.424Z" agent="Mozilla/5.0 (Windows NT 10.0; Win64; x64) AppleWebKit/537.36 (KHTML, like Gecko) Chrome/122.0.0.0 Safari/537.36 Edg/122.0.0.0" etag="ng_-qrFw8-SX1rMd8u80" version="24.2.0" type="device">
  <diagram name="Page-1" id="nTpRKPsp-iXl_QrR9z7W">
    <mxGraphModel dx="273" dy="561" grid="1" gridSize="10" guides="1" tooltips="1" connect="1" arrows="1" fold="1" page="1" pageScale="1" pageWidth="850" pageHeight="1100" math="0" shadow="0">
      <root>
        <mxCell id="0" />
        <mxCell id="1" parent="0" />
        <mxCell id="BDPgp1rO4AuzX8ltqjf6-9" style="edgeStyle=orthogonalEdgeStyle;rounded=0;orthogonalLoop=1;jettySize=auto;html=1;" edge="1" parent="1" source="BDPgp1rO4AuzX8ltqjf6-2" target="BDPgp1rO4AuzX8ltqjf6-3">
          <mxGeometry relative="1" as="geometry" />
        </mxCell>
        <mxCell id="BDPgp1rO4AuzX8ltqjf6-2" value="" style="ellipse;fillColor=strokeColor;html=1;" vertex="1" parent="1">
          <mxGeometry x="110" y="100" width="30" height="30" as="geometry" />
        </mxCell>
        <mxCell id="BDPgp1rO4AuzX8ltqjf6-10" style="edgeStyle=orthogonalEdgeStyle;rounded=0;orthogonalLoop=1;jettySize=auto;html=1;entryX=0.5;entryY=0;entryDx=0;entryDy=0;" edge="1" parent="1" source="BDPgp1rO4AuzX8ltqjf6-3" target="BDPgp1rO4AuzX8ltqjf6-4">
          <mxGeometry relative="1" as="geometry" />
        </mxCell>
        <mxCell id="BDPgp1rO4AuzX8ltqjf6-3" value="Input data for preprocessing" style="shape=parallelogram;perimeter=parallelogramPerimeter;whiteSpace=wrap;html=1;fixedSize=1;" vertex="1" parent="1">
          <mxGeometry x="32.5" y="170" width="185" height="40" as="geometry" />
        </mxCell>
        <mxCell id="BDPgp1rO4AuzX8ltqjf6-11" style="edgeStyle=orthogonalEdgeStyle;rounded=0;orthogonalLoop=1;jettySize=auto;html=1;" edge="1" parent="1" source="BDPgp1rO4AuzX8ltqjf6-4" target="BDPgp1rO4AuzX8ltqjf6-5">
          <mxGeometry relative="1" as="geometry" />
        </mxCell>
        <mxCell id="BDPgp1rO4AuzX8ltqjf6-4" value="Encode label data" style="rounded=0;whiteSpace=wrap;html=1;" vertex="1" parent="1">
          <mxGeometry x="40" y="240" width="170" height="40" as="geometry" />
        </mxCell>
        <mxCell id="BDPgp1rO4AuzX8ltqjf6-12" style="edgeStyle=orthogonalEdgeStyle;rounded=0;orthogonalLoop=1;jettySize=auto;html=1;entryX=0.5;entryY=0;entryDx=0;entryDy=0;" edge="1" parent="1" source="BDPgp1rO4AuzX8ltqjf6-5" target="BDPgp1rO4AuzX8ltqjf6-6">
          <mxGeometry relative="1" as="geometry" />
        </mxCell>
        <mxCell id="BDPgp1rO4AuzX8ltqjf6-5" value="Split Data into train dataset and test dataset" style="rounded=0;whiteSpace=wrap;html=1;" vertex="1" parent="1">
          <mxGeometry x="40" y="310" width="170" height="40" as="geometry" />
        </mxCell>
        <mxCell id="BDPgp1rO4AuzX8ltqjf6-6" value="Initialize Random Forest&lt;div&gt;n_estimators, max_depth, sample_size&lt;/div&gt;" style="rounded=0;whiteSpace=wrap;html=1;" vertex="1" parent="1">
          <mxGeometry x="40" y="380" width="170" height="50" as="geometry" />
        </mxCell>
      </root>
    </mxGraphModel>
  </diagram>
</mxfile>
